# xmcd
#
# Track frame offsets:
#	150
#	14041
#	27365
#	39164
#	51407
#	64169
#	77385
#	90604
#	101483
#	113615
#	126286
#	139469
#
# Disc length: 2056 seconds
#
# Revision: 0
# Processed by: cddbd v1.5.2PL0 Copyright (c) Steve Scherf et al.
# Submitted via: EZCDAudioConverter 1.3.4.1
#
DISCID=9d08060c
DTITLE=Dominique Rabold and Sue Lehmann - Adler Im Morgenrot
DYEAR=2013
DGENRE=Pop
TTITLE0=Polka Lorena
TTITLE1=Leise Rauscht Der Bach
TTITLE2=Am FuBe Des Monte Rosa
TTITLE3=Der Herold Von Baden
TTITLE4=Besuch In Baden
TTITLE5=Die Rote Spieldose
TTITLE6=Abendhimmel In Der Taiga
TTITLE7=Alpen-Springer
TTITLE8=Adler Im Morgenrot
TTITLE9=Die Schöne Vom Albtal
TTITLE10=Dreamin' Lady
TTITLE11=Hoch Auf Dem Schwarzwald
EXTD=
EXTT0=
EXTT1=
EXTT2=
EXTT3=
EXTT4=
EXTT5=
EXTT6=
EXTT7=
EXTT8=
EXTT9=
EXTT10=
EXTT11=
PLAYORDER=
